#!OML:ASF I:\Actors\actors\Patient Classification 2\Patient 1\Session 1\actor1.ASF
:FULLY-SPECIFIED
:DEGREES
601
root -0.436384 18.2415 5.11744 -8.41597 3.37203 -0.340715
lowerback 15.3005 -0.228909 -0.563408
upperback 0.735453 -0.419488 -0.24536
thorax -7.80662 -0.18672 0.148443
lowerneck -15.8809 -2.81471 -2.56223
upperneck 31.2611 -4.62836 3.82366
head 13.3128 -1.81948 1.20232
rclavicle -3.09281e-015 -1.11319e-014
rhumerus -42.9817 34.372 -89.5996
rradius 126.123
rwrist 21.8442
rhand -42.1397 -56.5419
rfingers 7.12502
rthumb -15.0298 -85.9763
lclavicle -3.09281e-015 -1.11319e-014
lhumerus -30.1279 -46.5529 75.6631
lradius 123.678
lwrist 8.35388
lhand -30.3726 -45.2229
lfingers 7.12502
lthumb -3.6773 -15.2749
rfemur 6.81965 0.128874 13.2825
rtibia 19.0729
rfoot -23.8831 -7.94652
rtoes -12.855
lfemur -3.93111 -0.816336 -14.1314
ltibia 33.3167
lfoot -21.6509 3.61437
ltoes -56.4855
602
root -0.44017 18.2126 5.08077 -8.16657 3.40951 -0.396054
lowerback 16.0233 -0.209588 -0.579167
upperback 0.789725 -0.392934 -0.141828
thorax -8.15149 -0.169902 0.26581
lowerneck -15.8901 -2.8232 -2.54049
upperneck 31.0814 -4.60564 3.73201
head 13.2341 -1.82046 1.16473
rclavicle 5.45881e-015 3.37934e-015
rhumerus -43.3587 34.4943 -89.8236
rradius 126.149
rwrist 22.4865
rhand -42.0528 -56.8207
rfingers 7.12502
rthumb -14.9461 -86.2614
lclavicle 5.45881e-015 3.37934e-015
lhumerus -30.4288 -46.27 76.6408
lradius 123.426
lwrist 7.84776
lhand -30.3985 -45.7129
lfingers 7.12502
lthumb -3.70231 -15.7653
rfemur 5.4755 -0.325538 13.2359
rtibia 20.9405
rfoot -24.1639 -7.36532
rtoes -13.5975
lfemur -4.87758 -0.564865 -14.0122
ltibia 34.2814
lfoot -21.8331 3.39761
ltoes -56.7313
603
root -0.443266 18.1796 5.03633 -7.88983 3.44565 -0.423258
lowerback 16.8391 -0.199088 -0.537543
upperback 0.874314 -0.371115 -0.0838554
thorax -8.51539 -0.158278 0.303404
lowerneck -15.9197 -2.83372 -2.61079
upperneck 30.8159 -4.59692 3.77182
head 13.1312 -1.82136 1.1914
rclavicle 5.02552e-015 1.72943e-014
rhumerus -43.5194 34.5441 -89.9799
rradius 126.109
rwrist 22.8389
rhand -41.7315 -57.0248
rfingers 7.12502
rthumb -14.6365 -86.4882
lclavicle 5.02552e-015 1.72943e-014
lhumerus -30.621 -46.003 77.5935
lradius 122.997
lwrist 7.22013
lhand -30.5804 -46.1916
lfingers 7.12502
lthumb -3.87798 -16.2472
rfemur 4.02701 -0.787635 13.1651
rtibia 22.9202
rfoot -24.4511 -6.77725
rtoes -14.4016
lfemur -5.94261 -0.245601 -13.911
ltibia 35.3643
lfoot -22.0205 3.10237
ltoes -56.9361
604
root -0.445642 18.1403 4.98451 -7.61439 3.49291 -0.425309
lowerback 17.7825 -0.211129 -0.467414
upperback 0.977278 -0.376884 -0.0701497
thorax -8.92931 -0.16185 0.284421
lowerneck -15.8007 -2.83143 -2.63558
upperneck 30.3066 -4.59249 3.86675
head 12.8963 -1.81637 1.23042
rclavicle 1.57164e-015 5.76476e-015
rhumerus -43.6832 34.5694 -90.2804
rradius 125.981
rwrist 23.1719
rhand -42.4563 -57.2954
rfingers 7.12502
rthumb -15.3347 -86.7068
lclavicle 1.57164e-015 5.76476e-015
lhumerus -30.8384 -45.7325 78.5755
lradius 122.548
lwrist 6.5058
lhand -30.8509 -46.3746
lfingers 7.12502
lthumb -4.13917 -16.4351
rfemur 2.5 -1.27203 13.0644
rtibia 25.0129
rfoot -24.7823 -6.21433
rtoes -15.2799
lfemur -7.11042 0.048605 -13.8467
ltibia 36.587
lfoot -22.2476 2.75933
ltoes -56.9786
605
root -0.447801 18.0945 4.92364 -7.31941 3.55599 -0.417342
lowerback 18.7857 -0.222048 -0.449741
upperback 1.18524 -0.387024 -0.0229
thorax -9.25836 -0.164997 0.33305
lowerneck -15.8308 -2.82219 -2.5615
upperneck 29.6716 -4.56186 3.84793
head 12.6374 -1.80283 1.20973
rclavicle 2.39163e-015 1.39149e-014
rhumerus -43.6898 34.5812 -90.4889
rradius 125.858
rwrist 23.4572
rhand -41.9113 -58.0185
rfingers 7.12502
rthumb -14.8097 -87.4693
lclavicle 2.39163e-015 1.39149e-014
lhumerus -30.806 -45.4054 79.4672
lradius 122.057
lwrist 5.85392
lhand -30.9176 -46.4152
lfingers 7.12502
lthumb -4.20358 -16.4769
rfemur 0.847048 -1.74553 12.9576
rtibia 27.2428
rfoot -25.1674 -5.63849
rtoes -15.9164
lfemur -8.42422 0.310809 -13.8005
ltibia 37.9771
lfoot -22.5251 2.40958
ltoes -56.945
606
root -0.439693 18.0399 4.84765 -6.92328 3.44661 -0.356616
lowerback 19.5095 -0.212867 -0.301337
upperback 1.65523 -0.344924 -0.0345699
thorax -9.14203 -0.151624 0.226832
lowerneck -16.1316 -2.7968 -2.4802
upperneck 28.7973 -4.50664 3.8682
head 12.3424 -1.77148 1.20205
rclavicle -1.45982e-015 6.75868e-015
rhumerus -42.7415 34.5633 -90.1166
rradius 125.439
rwrist 23.7342
rhand -42.2216 -56.7463
rfingers 7.12502
rthumb -15.1086 -86.1749
lclavicle -1.45982e-015 6.75868e-015
lhumerus -29.9768 -45.0052 79.7648
lradius 121.448
lwrist 5.37407
lhand -30.9379 -46.5673
lfingers 7.12502
lthumb -4.2232 -16.6294
rfemur -1.07297 -2.16442 12.7619
rtibia 29.539
rfoot -25.4011 -4.99638
rtoes -16.6792
lfemur -9.94026 0.591379 -13.8687
ltibia 39.4849
lfoot -22.8352 2.26848
ltoes -56.9176
